<mxfile host="app.diagrams.net" agent="Mozilla/5.0 (Windows NT 10.0; Win64; x64) AppleWebKit/537.36 (KHTML, like Gecko) Chrome/136.0.0.0 Safari/537.36" version="27.0.5">
  <diagram name="PÃ¡gina-1" id="xjHSXQc88-Tvlzuq0_Zz">
    <mxGraphModel dx="703" dy="790" grid="1" gridSize="10" guides="1" tooltips="1" connect="1" arrows="1" fold="1" page="1" pageScale="1" pageWidth="827" pageHeight="1169" math="0" shadow="0">
      <root>
        <mxCell id="0" />
        <mxCell id="1" parent="0" />
        <mxCell id="CZP2uKM87NXGNb1DyytT-1" value="" style="ellipse;html=1;shape=startState;fillColor=#000000;strokeColor=#ff0000;" vertex="1" parent="1">
          <mxGeometry x="70" y="20" width="30" height="30" as="geometry" />
        </mxCell>
        <mxCell id="CZP2uKM87NXGNb1DyytT-2" value="" style="edgeStyle=orthogonalEdgeStyle;html=1;verticalAlign=bottom;endArrow=open;endSize=8;strokeColor=#ff0000;rounded=0;" edge="1" source="CZP2uKM87NXGNb1DyytT-1" parent="1">
          <mxGeometry relative="1" as="geometry">
            <mxPoint x="85" y="110" as="targetPoint" />
            <Array as="points">
              <mxPoint x="85" y="70" />
              <mxPoint x="86" y="70" />
            </Array>
          </mxGeometry>
        </mxCell>
        <mxCell id="CZP2uKM87NXGNb1DyytT-3" value="Acessar site" style="rounded=1;whiteSpace=wrap;html=1;arcSize=40;fontColor=#000000;fillColor=#ffffc0;strokeColor=#ff0000;" vertex="1" parent="1">
          <mxGeometry x="30" y="120" width="120" height="40" as="geometry" />
        </mxCell>
        <mxCell id="CZP2uKM87NXGNb1DyytT-4" value="" style="edgeStyle=orthogonalEdgeStyle;html=1;verticalAlign=bottom;endArrow=open;endSize=8;strokeColor=#ff0000;rounded=0;" edge="1" source="CZP2uKM87NXGNb1DyytT-3" parent="1">
          <mxGeometry relative="1" as="geometry">
            <mxPoint x="90" y="220" as="targetPoint" />
          </mxGeometry>
        </mxCell>
        <mxCell id="CZP2uKM87NXGNb1DyytT-7" value="Tem conta?" style="rhombus;whiteSpace=wrap;html=1;fontColor=#000000;fillColor=#ffffc0;strokeColor=#ff0000;" vertex="1" parent="1">
          <mxGeometry x="50" y="220" width="80" height="40" as="geometry" />
        </mxCell>
        <mxCell id="CZP2uKM87NXGNb1DyytT-8" value="no" style="edgeStyle=orthogonalEdgeStyle;html=1;align=left;verticalAlign=bottom;endArrow=open;endSize=8;strokeColor=#ff0000;rounded=0;" edge="1" source="CZP2uKM87NXGNb1DyytT-7" parent="1">
          <mxGeometry x="-1" relative="1" as="geometry">
            <mxPoint x="230" y="240" as="targetPoint" />
          </mxGeometry>
        </mxCell>
        <mxCell id="CZP2uKM87NXGNb1DyytT-9" value="yes" style="edgeStyle=orthogonalEdgeStyle;html=1;align=left;verticalAlign=top;endArrow=open;endSize=8;strokeColor=#ff0000;rounded=0;" edge="1" source="CZP2uKM87NXGNb1DyytT-7" parent="1">
          <mxGeometry x="-1" relative="1" as="geometry">
            <mxPoint x="90" y="320" as="targetPoint" />
          </mxGeometry>
        </mxCell>
        <mxCell id="CZP2uKM87NXGNb1DyytT-11" value="Criar conta" style="rounded=1;whiteSpace=wrap;html=1;arcSize=40;fontColor=#000000;fillColor=#ffffc0;strokeColor=#ff0000;" vertex="1" parent="1">
          <mxGeometry x="230" y="220" width="120" height="40" as="geometry" />
        </mxCell>
        <mxCell id="CZP2uKM87NXGNb1DyytT-12" value="" style="edgeStyle=orthogonalEdgeStyle;html=1;verticalAlign=bottom;endArrow=open;endSize=8;strokeColor=#ff0000;rounded=0;entryX=1;entryY=0.25;entryDx=0;entryDy=0;" edge="1" parent="1">
          <mxGeometry relative="1" as="geometry">
            <mxPoint x="150" y="340" as="targetPoint" />
            <mxPoint x="290" y="260" as="sourcePoint" />
            <Array as="points">
              <mxPoint x="290" y="330" />
              <mxPoint x="150" y="330" />
            </Array>
          </mxGeometry>
        </mxCell>
        <mxCell id="CZP2uKM87NXGNb1DyytT-13" value="Fazer Login" style="rounded=1;whiteSpace=wrap;html=1;arcSize=40;fontColor=#000000;fillColor=#ffffc0;strokeColor=#ff0000;" vertex="1" parent="1">
          <mxGeometry x="30" y="320" width="120" height="40" as="geometry" />
        </mxCell>
        <mxCell id="CZP2uKM87NXGNb1DyytT-14" value="" style="edgeStyle=orthogonalEdgeStyle;html=1;verticalAlign=bottom;endArrow=open;endSize=8;strokeColor=#ff0000;rounded=0;" edge="1" source="CZP2uKM87NXGNb1DyytT-13" parent="1">
          <mxGeometry relative="1" as="geometry">
            <mxPoint x="90" y="420" as="targetPoint" />
          </mxGeometry>
        </mxCell>
        <mxCell id="CZP2uKM87NXGNb1DyytT-15" value="Adicionar itens ao carrinho" style="rounded=1;whiteSpace=wrap;html=1;arcSize=40;fontColor=#000000;fillColor=#ffffc0;strokeColor=#ff0000;" vertex="1" parent="1">
          <mxGeometry x="30" y="420" width="120" height="40" as="geometry" />
        </mxCell>
        <mxCell id="CZP2uKM87NXGNb1DyytT-16" value="" style="edgeStyle=orthogonalEdgeStyle;html=1;verticalAlign=bottom;endArrow=open;endSize=8;strokeColor=#ff0000;rounded=0;" edge="1" source="CZP2uKM87NXGNb1DyytT-15" parent="1">
          <mxGeometry relative="1" as="geometry">
            <mxPoint x="90" y="520" as="targetPoint" />
          </mxGeometry>
        </mxCell>
        <mxCell id="CZP2uKM87NXGNb1DyytT-17" value="Selecionar forma pagamento" style="rounded=1;whiteSpace=wrap;html=1;arcSize=40;fontColor=#000000;fillColor=#ffffc0;strokeColor=#ff0000;" vertex="1" parent="1">
          <mxGeometry x="30" y="520" width="120" height="40" as="geometry" />
        </mxCell>
        <mxCell id="CZP2uKM87NXGNb1DyytT-18" value="" style="edgeStyle=orthogonalEdgeStyle;html=1;verticalAlign=bottom;endArrow=open;endSize=8;strokeColor=#ff0000;rounded=0;" edge="1" source="CZP2uKM87NXGNb1DyytT-17" parent="1">
          <mxGeometry relative="1" as="geometry">
            <mxPoint x="90" y="620" as="targetPoint" />
          </mxGeometry>
        </mxCell>
        <mxCell id="CZP2uKM87NXGNb1DyytT-26" value="" style="edgeStyle=orthogonalEdgeStyle;rounded=0;orthogonalLoop=1;jettySize=auto;html=1;" edge="1" parent="1" source="CZP2uKM87NXGNb1DyytT-22" target="CZP2uKM87NXGNb1DyytT-25">
          <mxGeometry relative="1" as="geometry" />
        </mxCell>
        <mxCell id="CZP2uKM87NXGNb1DyytT-22" value="Tem itens no pedido?" style="rhombus;whiteSpace=wrap;html=1;fontColor=#000000;fillColor=#ffffc0;strokeColor=#ff0000;" vertex="1" parent="1">
          <mxGeometry x="50" y="620" width="80" height="40" as="geometry" />
        </mxCell>
        <mxCell id="CZP2uKM87NXGNb1DyytT-23" value="no" style="edgeStyle=orthogonalEdgeStyle;html=1;align=left;verticalAlign=bottom;endArrow=open;endSize=8;strokeColor=#ff0000;rounded=0;entryX=1;entryY=0.5;entryDx=0;entryDy=0;" edge="1" source="CZP2uKM87NXGNb1DyytT-22" parent="1" target="CZP2uKM87NXGNb1DyytT-15">
          <mxGeometry x="-1" relative="1" as="geometry">
            <mxPoint x="230" y="640" as="targetPoint" />
            <Array as="points">
              <mxPoint x="220" y="640" />
              <mxPoint x="220" y="440" />
            </Array>
          </mxGeometry>
        </mxCell>
        <mxCell id="CZP2uKM87NXGNb1DyytT-24" value="yes" style="edgeStyle=orthogonalEdgeStyle;html=1;align=left;verticalAlign=top;endArrow=open;endSize=8;strokeColor=#ff0000;rounded=0;" edge="1" source="CZP2uKM87NXGNb1DyytT-22" parent="1">
          <mxGeometry x="-1" relative="1" as="geometry">
            <mxPoint x="90" y="720" as="targetPoint" />
          </mxGeometry>
        </mxCell>
        <mxCell id="CZP2uKM87NXGNb1DyytT-28" value="" style="edgeStyle=orthogonalEdgeStyle;rounded=0;orthogonalLoop=1;jettySize=auto;html=1;" edge="1" parent="1" source="CZP2uKM87NXGNb1DyytT-25" target="CZP2uKM87NXGNb1DyytT-27">
          <mxGeometry relative="1" as="geometry" />
        </mxCell>
        <mxCell id="CZP2uKM87NXGNb1DyytT-25" value="Realiza pedido" style="whiteSpace=wrap;html=1;fillColor=#ffffc0;strokeColor=#ff0000;fontColor=#000000;" vertex="1" parent="1">
          <mxGeometry x="30" y="730" width="120" height="60" as="geometry" />
        </mxCell>
        <mxCell id="CZP2uKM87NXGNb1DyytT-30" value="" style="edgeStyle=orthogonalEdgeStyle;rounded=0;orthogonalLoop=1;jettySize=auto;html=1;" edge="1" parent="1" source="CZP2uKM87NXGNb1DyytT-27" target="CZP2uKM87NXGNb1DyytT-29">
          <mxGeometry relative="1" as="geometry" />
        </mxCell>
        <mxCell id="CZP2uKM87NXGNb1DyytT-27" value="Notifica atendente" style="whiteSpace=wrap;html=1;fillColor=#ffffc0;strokeColor=#ff0000;fontColor=#000000;" vertex="1" parent="1">
          <mxGeometry x="30" y="870" width="120" height="60" as="geometry" />
        </mxCell>
        <mxCell id="CZP2uKM87NXGNb1DyytT-32" value="" style="edgeStyle=orthogonalEdgeStyle;rounded=0;orthogonalLoop=1;jettySize=auto;html=1;" edge="1" parent="1" source="CZP2uKM87NXGNb1DyytT-29" target="CZP2uKM87NXGNb1DyytT-31">
          <mxGeometry relative="1" as="geometry" />
        </mxCell>
        <mxCell id="CZP2uKM87NXGNb1DyytT-29" value="Confirma pedido" style="whiteSpace=wrap;html=1;fillColor=#ffffc0;strokeColor=#ff0000;fontColor=#000000;" vertex="1" parent="1">
          <mxGeometry x="230" y="870" width="120" height="60" as="geometry" />
        </mxCell>
        <mxCell id="CZP2uKM87NXGNb1DyytT-34" value="" style="edgeStyle=orthogonalEdgeStyle;rounded=0;orthogonalLoop=1;jettySize=auto;html=1;" edge="1" parent="1" source="CZP2uKM87NXGNb1DyytT-31" target="CZP2uKM87NXGNb1DyytT-33">
          <mxGeometry relative="1" as="geometry" />
        </mxCell>
        <mxCell id="CZP2uKM87NXGNb1DyytT-31" value="Notifica pizzaiolo" style="whiteSpace=wrap;html=1;fillColor=#ffffc0;strokeColor=#ff0000;fontColor=#000000;" vertex="1" parent="1">
          <mxGeometry x="430" y="870" width="120" height="60" as="geometry" />
        </mxCell>
        <mxCell id="CZP2uKM87NXGNb1DyytT-38" value="" style="edgeStyle=orthogonalEdgeStyle;rounded=0;orthogonalLoop=1;jettySize=auto;html=1;entryX=0.5;entryY=1;entryDx=0;entryDy=0;" edge="1" parent="1" source="CZP2uKM87NXGNb1DyytT-33" target="CZP2uKM87NXGNb1DyytT-41">
          <mxGeometry relative="1" as="geometry">
            <mxPoint x="490" y="660" as="targetPoint" />
            <Array as="points">
              <mxPoint x="490" y="695" />
              <mxPoint x="491" y="695" />
              <mxPoint x="491" y="690" />
              <mxPoint x="374" y="690" />
            </Array>
          </mxGeometry>
        </mxCell>
        <mxCell id="CZP2uKM87NXGNb1DyytT-33" value="Prepara pedido" style="whiteSpace=wrap;html=1;fillColor=#ffffc0;strokeColor=#ff0000;fontColor=#000000;" vertex="1" parent="1">
          <mxGeometry x="430" y="730" width="120" height="60" as="geometry" />
        </mxCell>
        <mxCell id="CZP2uKM87NXGNb1DyytT-41" value="Condition" style="rhombus;whiteSpace=wrap;html=1;fontColor=#000000;fillColor=#ffffc0;strokeColor=#ff0000;" vertex="1" parent="1">
          <mxGeometry x="334" y="620" width="80" height="40" as="geometry" />
        </mxCell>
        <mxCell id="CZP2uKM87NXGNb1DyytT-42" value="no" style="edgeStyle=orthogonalEdgeStyle;html=1;align=left;verticalAlign=bottom;endArrow=open;endSize=8;strokeColor=#ff0000;rounded=0;entryX=0;entryY=0.5;entryDx=0;entryDy=0;" edge="1" source="CZP2uKM87NXGNb1DyytT-41" parent="1" target="CZP2uKM87NXGNb1DyytT-47">
          <mxGeometry x="-1" relative="1" as="geometry">
            <mxPoint x="510" y="700" as="targetPoint" />
            <Array as="points" />
          </mxGeometry>
        </mxCell>
        <mxCell id="CZP2uKM87NXGNb1DyytT-43" value="yes" style="edgeStyle=orthogonalEdgeStyle;html=1;align=left;verticalAlign=top;endArrow=open;endSize=8;strokeColor=#ff0000;rounded=0;" edge="1" source="CZP2uKM87NXGNb1DyytT-41" parent="1">
          <mxGeometry x="-0.5789" y="20" relative="1" as="geometry">
            <mxPoint x="520" y="500" as="targetPoint" />
            <Array as="points">
              <mxPoint x="490" y="500" />
              <mxPoint x="521" y="500" />
            </Array>
            <mxPoint as="offset" />
          </mxGeometry>
        </mxCell>
        <mxCell id="CZP2uKM87NXGNb1DyytT-44" value="Finaliza com entrega" style="rounded=1;whiteSpace=wrap;html=1;arcSize=40;fontColor=#000000;fillColor=#ffffc0;strokeColor=#ff0000;" vertex="1" parent="1">
          <mxGeometry x="480" y="480" width="120" height="40" as="geometry" />
        </mxCell>
        <mxCell id="CZP2uKM87NXGNb1DyytT-45" value="" style="edgeStyle=orthogonalEdgeStyle;html=1;verticalAlign=bottom;endArrow=open;endSize=8;strokeColor=#ff0000;rounded=0;" edge="1" source="CZP2uKM87NXGNb1DyytT-44" parent="1" target="CZP2uKM87NXGNb1DyytT-46">
          <mxGeometry relative="1" as="geometry">
            <mxPoint x="590" y="580" as="targetPoint" />
          </mxGeometry>
        </mxCell>
        <mxCell id="CZP2uKM87NXGNb1DyytT-46" value="" style="ellipse;html=1;shape=endState;fillColor=#000000;strokeColor=#ff0000;" vertex="1" parent="1">
          <mxGeometry x="680" y="560" width="30" height="30" as="geometry" />
        </mxCell>
        <mxCell id="CZP2uKM87NXGNb1DyytT-47" value="Finaliza com cancelamento" style="rounded=1;whiteSpace=wrap;html=1;arcSize=40;fontColor=#000000;fillColor=#ffffc0;strokeColor=#ff0000;" vertex="1" parent="1">
          <mxGeometry x="490" y="620" width="120" height="40" as="geometry" />
        </mxCell>
        <mxCell id="CZP2uKM87NXGNb1DyytT-48" value="" style="edgeStyle=orthogonalEdgeStyle;html=1;verticalAlign=bottom;endArrow=open;endSize=8;strokeColor=#ff0000;rounded=0;entryX=0.5;entryY=1;entryDx=0;entryDy=0;" edge="1" source="CZP2uKM87NXGNb1DyytT-47" parent="1" target="CZP2uKM87NXGNb1DyytT-46">
          <mxGeometry relative="1" as="geometry">
            <mxPoint x="580" y="720" as="targetPoint" />
          </mxGeometry>
        </mxCell>
      </root>
    </mxGraphModel>
  </diagram>
</mxfile>
